HIERARCHY
ROOT Hips
{
  OFFSET 5.72205e-005 65.662 3.42586
  CHANNELS 6 Xposition Yposition Zposition Zrotation Xrotation Yrotation
  JOINT Chest
  {
    OFFSET 0 8.7983 -4.7612
    CHANNELS 3 Zrotation Xrotation Yrotation
    JOINT Chest2
    {
      OFFSET 0 8.0291 0.4195
      CHANNELS 3 Zrotation Xrotation Yrotation
      JOINT Chest3
      {
        OFFSET 0 9.9351 -2.2114
        CHANNELS 3 Zrotation Xrotation Yrotation
        JOINT Neck
        {
          OFFSET 0 22.3885 -0.4656
          CHANNELS 3 Zrotation Xrotation Yrotation
          JOINT Head
          {
            OFFSET -0.0001 12.643 3.4389
            CHANNELS 3 Zrotation Xrotation Yrotation
            End Site
            {
              OFFSET 0.0001 17.6655 0.5274
            }
          }
        }
        JOINT LeftCollar
        {
          OFFSET 2.2603 21.606 7.4023
          CHANNELS 3 Zrotation Xrotation Yrotation
          JOINT LeftShoulder
          {
            OFFSET 13.5163 -1.1332 -5.0146
            CHANNELS 3 Zrotation Xrotation Yrotation
            JOINT LeftElbow
            {
              OFFSET -0.0995 -28.05 -0.2431
              CHANNELS 3 Zrotation Xrotation Yrotation
              JOINT LeftWrist
              {
                OFFSET 0.0679 -23.3996 -0.1402
                CHANNELS 3 Zrotation Xrotation Yrotation
                JOINT LeftFinger1
                {
                  OFFSET 0.7932 -9.069 2.5189
                  CHANNELS 3 Zrotation Xrotation Yrotation
                  JOINT LeftFinger11
                  {
                    OFFSET -0.8272 -3.3923 0.5977
                    CHANNELS 3 Zrotation Xrotation Yrotation
                    JOINT LeftFinger12
                    {
                      OFFSET -0.5649 -2.3158 0.4082
                      CHANNELS 3 Zrotation Xrotation Yrotation
                      End Site
                      {
                        OFFSET -0.4919 -1.6479 0.2673
                      }
                    }
                  }
                }
                JOINT LeftFinger2
                {
                  OFFSET 0.9159 -9.2044 0.2193
                  CHANNELS 3 Zrotation Xrotation Yrotation
                  JOINT LeftFinger21
                  {
                    OFFSET 0.0117 -4.1944 -0.0248
                    CHANNELS 3 Zrotation Xrotation Yrotation
                    JOINT LeftFinger22
                    {
                      OFFSET 0.0071 -2.3249 -0.0142
                      CHANNELS 3 Zrotation Xrotation Yrotation
                      End Site
                      {
                        OFFSET -0.1475 -2.0882 0.0028
                      }
                    }
                  }
                }
                JOINT LeftFinger3
                {
                  OFFSET 0.6113 -8.7231 -2.0637
                  CHANNELS 3 Zrotation Xrotation Yrotation
                  JOINT LeftFinger31
                  {
                    OFFSET -0.1927 -3.8059 -0.2383
                    CHANNELS 3 Zrotation Xrotation Yrotation
                    JOINT LeftFinger32
                    {
                      OFFSET -0.1091 -2.1688 -0.1362
                      CHANNELS 3 Zrotation Xrotation Yrotation
                      End Site
                      {
                        OFFSET -0.2358 -1.9176 -0.0906
                      }
                    }
                  }
                }
                JOINT LeftFinger4
                {
                  OFFSET -0.6151 -8.0947 -3.5641
                  CHANNELS 3 Zrotation Xrotation Yrotation
                  JOINT LeftFinger41
                  {
                    OFFSET -0.4882 -2.341 -0.6462
                    CHANNELS 3 Zrotation Xrotation Yrotation
                    JOINT LeftFinger42
                    {
                      OFFSET -0.3575 -1.7167 -0.4742
                      CHANNELS 3 Zrotation Xrotation Yrotation
                      End Site
                      {
                        OFFSET -0.4187 -1.5237 -0.3496
                      }
                    }
                  }
                }
                JOINT LeftFinger0
                {
                  OFFSET -1.42 -1.8761 1.4223
                  CHANNELS 3 Zrotation Xrotation Yrotation
                  JOINT LeftFinger01
                  {
                    OFFSET -1.1471 -3.4929 2.6334
                    CHANNELS 3 Zrotation Xrotation Yrotation
                    JOINT LeftFinger02
                    {
                      OFFSET -0.823 -2.3 1.6571
                      CHANNELS 3 Zrotation Xrotation Yrotation
                      End Site
                      {
                        OFFSET -0.5822 -1.6914 1.1582
                      }
                    }
                  }
                }
              }
            }
          }
        }
        JOINT RightCollar
        {
          OFFSET -2.2603 21.606 7.4023
          CHANNELS 3 Zrotation Xrotation Yrotation
          JOINT RightShoulder
          {
            OFFSET -13.5187 -1.1334 -5.0155
            CHANNELS 3 Zrotation Xrotation Yrotation
            JOINT RightElbow
            {
              OFFSET 0.0994 -28.0499 -0.2431
              CHANNELS 3 Zrotation Xrotation Yrotation
              JOINT RightWrist
              {
                OFFSET -0.0679 -23.3996 -0.1402
                CHANNELS 3 Zrotation Xrotation Yrotation
                JOINT RightFinger1
                {
                  OFFSET -0.7932 -9.0691 2.5189
                  CHANNELS 3 Zrotation Xrotation Yrotation
                  JOINT RightFinger11
                  {
                    OFFSET 0.8272 -3.3923 0.5977
                    CHANNELS 3 Zrotation Xrotation Yrotation
                    JOINT RightFinger12
                    {
                      OFFSET 0.565 -2.3158 0.4082
                      CHANNELS 3 Zrotation Xrotation Yrotation
                      End Site
                      {
                        OFFSET 0.4919 -1.6479 0.2673
                      }
                    }
                  }
                }
                JOINT RightFinger2
                {
                  OFFSET -0.916 -9.2044 0.2193
                  CHANNELS 3 Zrotation Xrotation Yrotation
                  JOINT RightFinger21
                  {
                    OFFSET -0.0117 -4.1944 -0.0248
                    CHANNELS 3 Zrotation Xrotation Yrotation
                    JOINT RightFinger22
                    {
                      OFFSET -0.0071 -2.3249 -0.0142
                      CHANNELS 3 Zrotation Xrotation Yrotation
                      End Site
                      {
                        OFFSET 0.1475 -2.0882 0.0028
                      }
                    }
                  }
                }
                JOINT RightFinger3
                {
                  OFFSET -0.6113 -8.7231 -2.0637
                  CHANNELS 3 Zrotation Xrotation Yrotation
                  JOINT RightFinger31
                  {
                    OFFSET 0.1927 -3.8059 -0.2383
                    CHANNELS 3 Zrotation Xrotation Yrotation
                    JOINT RightFinger32
                    {
                      OFFSET 0.1091 -2.1688 -0.1362
                      CHANNELS 3 Zrotation Xrotation Yrotation
                      End Site
                      {
                        OFFSET 0.2358 -1.9176 -0.0906
                      }
                    }
                  }
                }
                JOINT RightFinger4
                {
                  OFFSET 0.6151 -8.0947 -3.564
                  CHANNELS 3 Zrotation Xrotation Yrotation
                  JOINT RightFinger41
                  {
                    OFFSET 0.4882 -2.341 -0.6462
                    CHANNELS 3 Zrotation Xrotation Yrotation
                    JOINT RightFinger42
                    {
                      OFFSET 0.3574 -1.7166 -0.4742
                      CHANNELS 3 Zrotation Xrotation Yrotation
                      End Site
                      {
                        OFFSET 0.4187 -1.5237 -0.3496
                      }
                    }
                  }
                }
                JOINT RightFinger0
                {
                  OFFSET 1.4199 -1.8761 1.4221
                  CHANNELS 3 Zrotation Xrotation Yrotation
                  JOINT RightFinger01
                  {
                    OFFSET 1.1472 -3.4929 2.6336
                    CHANNELS 3 Zrotation Xrotation Yrotation
                    JOINT RightFinger02
                    {
                      OFFSET 0.8229 -2.3 1.6571
                      CHANNELS 3 Zrotation Xrotation Yrotation
                      End Site
                      {
                        OFFSET 0.5822 -1.6914 1.1582
                      }
                    }
                  }
                }
              }
            }
          }
        }
      }
    }
  }
  JOINT RightHip
  {
    OFFSET -9.412 3.9771 -0.7758
    CHANNELS 3 Zrotation Xrotation Yrotation
    JOINT RightKnee
    {
      OFFSET -0.7531 -40.938 0
      CHANNELS 3 Zrotation Xrotation Yrotation
      JOINT RightAnkle
      {
        OFFSET 0 -40.1986 0
        CHANNELS 3 Zrotation Xrotation Yrotation
        JOINT RightToe
        {
          OFFSET 0 -4.4182 9.239
          CHANNELS 3 Zrotation Xrotation Yrotation
          End Site
          {
            OFFSET 0 0 6.1981
          }
        }
      }
    }
  }
  JOINT LeftHip
  {
    OFFSET 9.4119 3.9773 -0.7758
    CHANNELS 3 Zrotation Xrotation Yrotation
    JOINT LeftKnee
    {
      OFFSET 0.7532 -40.9383 0
      CHANNELS 3 Zrotation Xrotation Yrotation
      JOINT LeftAnkle
      {
        OFFSET 0 -40.1986 0
        CHANNELS 3 Zrotation Xrotation Yrotation
        JOINT LeftToe
        {
          OFFSET 0 -4.4182 9.239
          CHANNELS 3 Zrotation Xrotation Yrotation
          End Site
          {
            OFFSET 0 0 6.1981
          }
        }
      }
    }
  }
}
MOTION
Frames:	5
Frame Time:	0.0333333
-0.190338 -7.98389 9.72612 -0 -89.0022 -0 -0 -1.98785e-016 -0 -0 -1.98785e-016 -0 -0 -1.98785e-016 -0 -0.050171 16.997 -2.90486e-009 -0.0417322 -7.82124 24.3324 -0.0501701 4.64715e-006 -12.5014 74.0228 11.3276 73.6625 0.305529 -23.6347 20.3405 14.7712 -2.58837 0.795246 6.58456e-008 -8.47115e-007 4.21271e-007 -3.29228e-008 -8.44092e-007 -2.10636e-007 -6.58456e-008 -8.42076e-007 -4.21271e-007 6.58456e-008 -8.47115e-007 4.21271e-007 -0.0128048 0.00232202 8.49948e-005 -8.44835e-016 -8.44093e-007 -0 6.58456e-008 -8.47115e-007 4.21271e-007 -0.016048 0.00299274 0.000856591 4.96962e-017 -8.44094e-007 7.95139e-016 6.58456e-008 -8.47115e-007 4.21271e-007 -0.0126145 0.00312972 0.00283271 9.87408e-008 -2.51768e-006 6.31911e-007 6.58456e-008 -8.47115e-007 4.21271e-007 -3.29228e-008 -8.44092e-007 -2.10636e-007 -6.58456e-008 -8.42076e-007 -4.21271e-007 -0.882764 -0.289193 37.034 -134.221 19.8676 -66.0184 172.312 -46.9732 138.008 6.73143e-005 -0.000116606 0.000308623 -7.95139e-016 1.19271e-015 -3.18055e-015 -7.95139e-016 1.19271e-015 -6.36111e-015 -3.97569e-016 1.19271e-015 -0 -7.95139e-016 1.19271e-015 -3.18055e-015 0.0129537 0.00231507 -8.32407e-005 5.29669e-031 2.38542e-015 -1.27222e-014 -7.95139e-016 1.19271e-015 -3.18055e-015 0.0163199 0.00302496 -0.000872974 3.97569e-016 -3.97569e-016 6.36111e-015 -7.95139e-016 1.19271e-015 -3.18055e-015 0.014617 0.00368175 -0.00327259 1.98785e-015 1.19271e-015 -6.36111e-015 -7.95139e-016 1.19271e-015 -3.18055e-015 -7.95139e-016 1.19271e-015 -6.36111e-015 -3.97569e-016 1.19271e-015 -0 4.58079 -7.86705 0.331829 5.97672e-005 14.2368 13.095 -5.66069 39.0322 0.928723 -2.43161e-006 -4.74296e-006 -1.92599e-007 -13.8757 0.173812 0.0740887 0.00100498 5.53345 -14.0956 4.28663 16.1669 -0.27112 2.85763e-006 -7.15258e-008 1.86799e-006 
-0.190338 -7.98386 9.72612 -0 -89.0022 -0 -0 -1.98785e-016 -0 -0 -1.98785e-016 -0 -0 -1.98785e-016 -0 -0.049832 16.997 -2.63692e-009 -0.0320104 -7.86696 24.499 -0.0498299 8.38865e-006 -12.5014 73.8278 11.316 73.7031 0.328215 -23.5171 20.3439 14.7712 -2.58836 0.795269 -4.96962e-016 0 7.95139e-016 6.37088e-008 8.244e-007 4.21616e-007 8.44835e-016 -1.59028e-015 3.97569e-016 -4.96962e-016 0 7.95139e-016 -0.0128174 0.00232354 8.53119e-005 -1.49089e-015 -3.02153e-014 3.97569e-016 -4.96962e-016 0 7.95139e-016 -0.0160587 0.00299734 0.000858352 -9.93923e-017 0 -0 -4.96962e-016 0 7.95139e-016 -0.0126242 0.0031306 0.00283269 4.96962e-017 1.59028e-015 3.97569e-016 -4.96962e-016 0 7.95139e-016 6.37088e-008 8.244e-007 4.21616e-007 8.44835e-016 -1.59028e-015 3.97569e-016 -0.882426 -0.289199 37.034 -134.223 19.8685 -66.0178 172.313 -46.9744 138.008 6.37711e-005 -0.000125465 0.000301589 3.97569e-016 -1.98785e-015 -0 7.95139e-016 -7.95139e-016 -6.36111e-015 -1.10348e-031 -3.97569e-016 -1.59028e-014 3.97569e-016 -1.98785e-015 -0 0.0129286 0.00230933 -8.02239e-005 7.95139e-016 1.19271e-015 3.18055e-015 3.97569e-016 -1.98785e-015 -0 0.0163213 0.00302912 -0.000867998 1.19271e-015 -3.97569e-016 -6.36111e-015 3.97569e-016 -1.98785e-015 -0 0.0145746 0.00367517 -0.00326258 7.95139e-016 1.59028e-015 -1.90833e-014 3.97569e-016 -1.98785e-015 -0 7.95139e-016 -7.95139e-016 -6.36111e-015 -1.10348e-031 -3.97569e-016 -1.59028e-014 4.56838 -7.89299 0.331425 0.000151148 14.2919 13.1817 -5.759 39.1334 0.979635 -1.2021e-006 1.5326e-007 -1.21231e-006 -13.8703 0.17472 0.0738971 0.00103962 5.52901 -14.1952 4.28911 16.1763 -0.271736 -5.68715e-006 2.9136e-005 2.44269e-006 
-0.190337 -7.98382 9.72612 -0 -89.0022 -0 -0 -1.98785e-016 -0 -0 -1.98785e-016 -0 -0 -1.98785e-016 -0 -0.049493 16.997 -1.14505e-008 -0.019942 -7.92316 24.7037 -0.0494931 -7.44586e-007 -12.5014 73.5883 11.3019 73.7529 0.355778 -23.3728 20.3481 14.7712 -2.58837 0.79527 2.48481e-016 -1.59028e-015 -3.97569e-016 9.16244e-008 8.43693e-007 6.33037e-007 1.73937e-015 4.77083e-015 -3.97569e-016 2.48481e-016 -1.59028e-015 -3.97569e-016 -0.0128184 0.00232776 8.56975e-005 -7.17013e-006 -3.81787e-008 4.82365e-007 2.48481e-016 -1.59028e-015 -3.97569e-016 -0.0160518 0.00299564 0.000859842 4.86995e-007 1.30188e-006 7.35673e-007 2.48481e-016 -1.59028e-015 -3.97569e-016 -0.0125871 0.0031234 0.00283016 -1.05574e-005 9.50125e-007 7.74584e-007 2.48481e-016 -1.59028e-015 -3.97569e-016 9.16244e-008 8.43693e-007 6.33037e-007 1.73937e-015 4.77083e-015 -3.97569e-016 -0.882088 -0.28919 37.034 -134.221 19.8677 -66.0184 172.312 -46.9733 138.008 5.77797e-005 -0.00012885 0.000283705 -1.59028e-015 -1.98785e-015 1.90833e-014 -7.95139e-016 -1.59028e-015 1.27222e-014 -3.97569e-016 -7.95139e-016 9.54166e-015 -1.59028e-015 -1.98785e-015 1.90833e-014 0.0129471 0.00232698 -7.8383e-005 -3.97569e-016 -7.95139e-016 6.36111e-015 -1.59028e-015 -1.98785e-015 1.90833e-014 0.0163612 0.00304602 -0.000872651 3.97569e-016 -1.19271e-015 -3.18055e-015 -1.59028e-015 -1.98785e-015 1.90833e-014 0.014622 0.00369796 -0.00326912 -7.95139e-016 0 3.18055e-015 -1.59028e-015 -1.98785e-015 1.90833e-014 -7.95139e-016 -1.59028e-015 1.27222e-014 -3.97569e-016 -7.95139e-016 9.54166e-015 4.55319 -7.90992 0.330732 2.92212e-005 14.3346 13.289 -5.87824 39.2674 1.04305 1.16467e-006 -2.26607e-006 -2.4171e-006 -13.8638 0.181441 0.0737621 0.00120442 5.51217 -14.3177 4.29064 16.1934 -0.27268 -8.88856e-024 1.60122e-007 3.18055e-015 
-0.190335 -7.98378 9.72612 -0 -89.0022 -0 -0 -1.98785e-016 -0 -0 -1.98785e-016 -0 -0 -1.98785e-016 -0 -0.049154 16.997 -2.40468e-009 -0.00759303 -7.97918 24.9083 -0.049153 1.01913e-005 -12.5014 73.3488 11.2874 73.8028 0.383444 -23.2285 20.3521 14.7712 -2.58836 0.795265 1.07911e-005 -5.61719e-007 -1.8794e-006 -1.4614e-007 -8.26441e-007 -1.05604e-006 -3.7152e-007 -2.79321e-007 1.10348e-007 1.07911e-005 -5.61719e-007 -1.8794e-006 -0.0128339 0.00232648 8.6683e-005 -8.76651e-008 1.97947e-008 -6.33628e-007 1.07911e-005 -5.61719e-007 -1.8794e-006 -0.0160567 0.00299679 0.000858005 -5.84395e-008 -8.44533e-007 -4.22419e-007 1.07911e-005 -5.61719e-007 -1.8794e-006 -0.0126076 0.00312702 0.00283017 -2.92187e-008 8.57298e-010 -2.11209e-007 1.07911e-005 -5.61719e-007 -1.8794e-006 -1.4614e-007 -8.26441e-007 -1.05604e-006 -3.7152e-007 -2.79321e-007 1.10348e-007 -0.881749 -0.28918 37.034 -134.223 19.8682 -66.018 172.313 -46.9741 138.008 5.44627e-005 -0.000130661 0.000295734 0 1.19271e-015 -0 7.95139e-016 1.59028e-015 -6.36111e-015 1.19271e-015 1.59028e-015 -3.18055e-015 0 1.19271e-015 -0 0.0129236 0.00231128 -8.97699e-005 3.97569e-016 0 3.18055e-015 0 1.19271e-015 -0 0.0163382 0.00303882 -0.000873805 3.97569e-016 -7.95139e-016 -3.18055e-015 0 1.19271e-015 -0 0.0145451 0.00366793 -0.00326122 -3.97569e-016 1.59028e-015 3.18055e-015 0 1.19271e-015 -0 7.95139e-016 1.59028e-015 -6.36111e-015 1.19271e-015 1.59028e-015 -3.18055e-015 4.53802 -7.94967 0.330299 6.97461e-005 14.42 13.3947 -6.00211 39.3819 1.10611 1.7828e-006 4.7801e-006 7.26772e-007 -13.8571 0.187433 0.0735964 0.00104733 5.49699 -14.4401 4.29251 16.2095 -0.27361 -2.72023e-007 -6.8315e-007 5.14156e-006 
-0.190334 -7.98376 9.72612 -0 -89.0022 -0 -0 -1.98785e-016 -0 -0 -1.98785e-016 -0 -0 -1.98785e-016 -0 -0.048815 16.997 -4.06235e-009 -0.00205336 -8.00379 24.9985 -0.0488119 1.40103e-005 -12.5014 73.2435 11.2811 73.8246 0.395595 -23.1642 20.3539 14.7712 -2.58839 0.795246 8.94531e-016 0 -0 8.94531e-016 0 -0 1.04362e-015 0 -0 8.94531e-016 0 -0 -0.0128331 0.00232648 8.7693e-005 8.59246e-008 -2.49895e-009 6.3388e-007 8.94531e-016 0 -0 -0.0160671 0.00300015 0.000861088 -1.14301e-014 -3.18055e-015 2.38542e-015 8.94531e-016 0 -0 -0.0125935 0.00312207 0.00283011 -3.47873e-016 -2.38542e-014 -3.97569e-016 8.94531e-016 0 -0 8.94531e-016 0 -0 1.04362e-015 0 -0 -0.881409 -0.289192 37.034 -134.222 19.8678 -66.0183 172.312 -46.9734 138.008 5.33657e-005 -0.000109854 0.000308147 1.76556e-031 -1.59028e-015 6.36111e-015 -3.97569e-016 -1.59028e-015 6.36111e-015 -3.97569e-016 -3.97569e-016 3.18055e-015 1.76556e-031 -1.59028e-015 6.36111e-015 0.0129321 0.00231364 -8.92558e-005 -1.19271e-015 -7.95139e-016 6.36111e-015 1.76556e-031 -1.59028e-015 6.36111e-015 0.0163184 0.00302928 -0.000877595 -1.59028e-015 -1.59028e-015 3.18055e-015 1.76556e-031 -1.59028e-015 6.36111e-015 0.0145746 0.00367576 -0.00326467 -3.68347e-006 -1.27468e-006 -5.29048e-006 1.76556e-031 -1.59028e-015 6.36111e-015 -3.97569e-016 -1.59028e-015 6.36111e-015 -3.97569e-016 -3.97569e-016 3.18055e-015 4.53124 -7.93823 0.329809 -0.000151912 14.4002 13.4436 -6.05082 39.4601 1.13504 2.98571e-007 -8.23411e-008 3.0503e-007 -13.8541 0.195409 0.0735821 0.00102663 5.47937 -14.4949 4.29197 16.2221 -0.274204 7.92278e-007 -2.3001e-008 2.74285e-007 
